# File created by Blade
# Date/Time:  Wed Jan 21 19:03:17 2015
#---------------------------------------------------------
:version 1.10
:name HOM
:units
  mass 1.0
  length 1.000000
  angle deg
:documentation
     Acclaim Skeleton File
:root
   axis xyz
   order TX TY TZ RX RY RZ
   position 0.000000 0.000000 0.000000
   orientation 0 0 0
:bonedata
   begin
      id 1
      name RightUpLeg_dum
      direction -1.000000 0.000000 0.000000
      length 3.693983
      axis 0.0 0.0 0.0 xyz
   end
   begin
      id 2
      name LeftUpLeg_dum
      direction 1.000000 0.000000 0.000000
      length 3.693983
      axis 0.0 0.0 0.0 xyz
   end
   begin
      id 3
      name Spine_dum
      direction 0.000000 1.000000 0.000000
      length 2.392956
      axis 0.0 0.0 0.0 xyz
   end
   begin
      id 4
      name RightUpLeg
      direction 0.000000 -1.000000 0.000000
      length 15.795667
      axis 0.0 0.0 0.0 xyz
      dof rx ry rz
   end
   begin
      id 5
      name RightLeg
      direction 0.000000 -1.000000 0.000000
      length 14.766989
      axis 0.0 0.0 0.0 xyz
      dof rx ry rz
   end
   begin
      id 6
      name RightFoot
      direction 0.000000 -0.258819 0.965926
      length 4.962790
      axis 15.0 0.0 0.0 xyz
      dof rx ry rz
   end
   begin
      id 7
      name RightToeBase
      direction 0.000000 0.000000 1.000000
      length 2.952750
      axis 0.0 0.0 0.0 xyz
      dof rx ry rz
   end
   begin
      id 8
      name LeftUpLeg
      direction 0.000000 -1.000000 0.000000
      length 15.795667
      axis 0.0 0.0 0.0 xyz
      dof rx ry rz
   end
   begin
      id 9
      name LeftLeg
      direction 0.000000 -1.000000 0.000000
      length 14.766989
      axis 0.0 0.0 0.0 xyz
      dof rx ry rz
   end
   begin
      id 10
      name LeftFoot
      direction 0.000000 -0.258819 0.965926
      length 4.962790
      axis 15.0 0.0 0.0 xyz
      dof rx ry rz
   end
   begin
      id 11
      name LeftToeBase
      direction 0.000000 0.000000 1.000000
      length 2.952750
      axis 0.0 0.0 0.0 xyz
      dof rx ry rz
   end
   begin
      id 12
      name Spine
      direction 0.000000 1.000000 0.000000
      length 0.000000
      axis 0.0 0.0 0.0 xyz
      dof rx ry rz
   end
   begin
      id 13
      name Spine_dum1
      direction 0.000000 1.000000 0.000000
      length 13.207411
      axis 0.0 0.0 0.0 xyz
   end
   begin
      id 14
      name Spine_dum2
      direction 0.000000 1.000000 0.000000
      length 13.207411
      axis 0.0 0.0 0.0 xyz
   end
   begin
      id 15
      name Spine_dum3
      direction 0.000000 1.000000 0.000000
      length 19.250100
      axis 0.0 0.0 0.0 xyz
   end
   begin
      id 16
      name RightShoulder
      direction -1.000000 0.000000 0.000000
      length 8.140465
      axis 0.0 0.0 90.0 xyz
      dof rx ry rz
   end
   begin
      id 17
      name RightArm
      direction -1.000000 0.000000 0.000000
      length 10.649840
      axis 0.0 0.0 90.0 xyz
      dof rx ry rz
   end
   begin
      id 18
      name RightForeArm
      direction -1.000000 0.000000 0.000000
      length 8.304624
      axis 0.0 0.0 90.0 xyz
      dof ry rz rx
   end
   begin
      id 19
      name RightHand
      direction -1.000000 0.000000 0.000000
      length 0.000000
      axis 0.0 0.0 90.0 xyz
      dof rx ry rz
   end
   begin
      id 20
      name RightHand_dum1
      direction -1.000000 0.000000 0.000000
      length 3.937000
      axis 0.0 0.0 90.0 xyz
   end
   begin
      id 21
      name RightHand_dum2
      direction 0.000000 0.000000 0.000000
      length 0.000000
      axis 0.0 0.0 90.0 xyz
   end
   begin
      id 22
      name RightHandThumb1
      direction 0.000000 0.000000 1.000000
      length 3.937000
      axis 0.0 0.0 90.0 xyz
      dof rx rz ry
   end
   begin
      id 23
      name LeftShoulder
      direction 1.000000 0.000000 0.000000
      length 8.140465
      axis 0.0 0.0 -90.0 xyz
      dof rx ry rz
   end
   begin
      id 24
      name LeftArm
      direction 1.000000 0.000000 0.000000
      length 10.649840
      axis 0.0 0.0 -90.0 xyz
      dof rx ry rz
   end
   begin
      id 25
      name LeftForeArm
      direction 1.000000 0.000000 0.000000
      length 8.304624
      axis 0.0 0.0 -90.0 xyz
      dof ry rz rx
   end
   begin
      id 26
      name LeftHand
      direction 1.000000 0.000000 0.000000
      length 0.000000
      axis 0.0 0.0 -90.0 xyz
      dof rx ry rz
   end
   begin
      id 27
      name LeftHand_dum1
      direction 1.000000 0.000000 0.000000
      length 3.937000
      axis 0.0 0.0 -90.0 xyz
   end
   begin
      id 28
      name LeftHand_dum2
      direction 0.000000 0.000000 0.000000
      length 0.000000
      axis 0.0 0.0 -90.0 xyz
   end
   begin
      id 29
      name LeftHandThumb1
      direction 0.000000 0.000000 1.000000
      length 3.937000
      axis 0.0 0.0 -90.0 xyz
      dof rx rz ry
   end
   begin
      id 30
      name Head
      direction 0.000000 1.000000 0.000000
      length 4.527550
      axis 0.0 0.0 0.0 xyz
      dof rx ry rz
   end
:hierarchy
   begin
      root RightUpLeg_dum LeftUpLeg_dum Spine_dum
      RightUpLeg_dum RightUpLeg
      LeftUpLeg_dum LeftUpLeg
      Spine_dum Spine
      RightUpLeg RightLeg
      RightLeg RightFoot
      RightFoot RightToeBase
      LeftUpLeg LeftLeg
      LeftLeg LeftFoot
      LeftFoot LeftToeBase
      Spine Spine_dum1 Spine_dum2 Spine_dum3
      Spine_dum1 RightShoulder
      Spine_dum2 LeftShoulder
      Spine_dum3 Head
      RightShoulder RightArm
      RightArm RightForeArm
      RightForeArm RightHand
      RightHand RightHand_dum1 RightHand_dum2
      RightHand_dum2 RightHandThumb1
      LeftShoulder LeftArm
      LeftArm LeftForeArm
      LeftForeArm LeftHand
      LeftHand LeftHand_dum1 LeftHand_dum2
      LeftHand_dum2 LeftHandThumb1
   end

# File created by Blade
# Date/Time:  Wed Jan 21 19:03:07 2015
# Frame Rate: 120.000 fps
#------------------------------------------------------
:FULLY-SPECIFIED
:DEGREES
170
root -2.743265 32.781124 -5.169988 40.389954 8.849783 3.381442
RightUpLeg -33.064793 -13.115549 7.589184
RightLeg -5.928208 -0.000000 0.000000
RightFoot -7.868866 0.770401 21.052881
RightToeBase 20.093985 -0.000000 -0.000000
LeftUpLeg -40.609281 10.013096 -3.888061
LeftLeg 3.341677 -0.000000 -0.000000
LeftFoot -7.380796 1.567265 -3.260941
LeftToeBase 7.436088 -0.000000 -0.000000
Spine -41.223289 -6.943531 1.656315
RightShoulder -19.377756 16.303679 -47.851799
RightArm 1.500414 -12.668509 40.422493
RightForeArm 7.806285 0.000000 -6.559925
RightHand 9.440406 -0.000000 5.163448
RightHandThumb1 -24.326973 -0.000000 -32.862282
LeftShoulder -11.575799 2.171097 41.233172
LeftArm 22.650571 -15.924013 -35.468988
LeftForeArm 10.653133 -0.000000 -2.913548
LeftHand -19.370105 -0.000000 -6.606361
LeftHandThumb1 -26.253704 0.000000 33.147579
Head 13.770882 -3.735513 7.816744
171
root -2.709918 32.774143 -5.182976 40.389270 8.935423 3.295572
RightUpLeg -33.069084 -13.145373 7.650342
RightLeg -5.957935 -0.000000 0.000000
RightFoot -7.878243 0.768219 21.074339
RightToeBase 20.139149 -0.000000 -0.000000
LeftUpLeg -40.846926 10.712339 -3.670952
LeftLeg 3.473429 -0.000000 -0.000000
LeftFoot -7.293010 1.522513 -3.415082
LeftToeBase 7.362130 -0.000000 -0.000000
Spine -41.201938 -7.027269 1.668474
RightShoulder -19.383273 16.248410 -47.803490
RightArm 1.429599 -12.525383 40.610009
RightForeArm 7.931072 -0.000000 -6.486593
RightHand 9.489121 -0.000000 5.040926
RightHandThumb1 -24.326973 -0.000000 -32.862282
LeftShoulder -11.568775 2.148950 41.225039
LeftArm 22.647073 -15.845209 -35.427753
LeftForeArm 10.642826 -0.000000 -2.769705
LeftHand -19.388526 -0.000000 -6.459749
LeftHandThumb1 -26.253704 0.000000 33.147579
Head 14.147703 -4.025387 7.986241
172
root -2.675185 32.766577 -5.193557 40.380370 9.002963 3.195461
RightUpLeg -33.051484 -13.149220 7.704218
RightLeg -6.007607 -0.000000 0.000000
RightFoot -7.855582 0.749840 21.188864
RightToeBase 20.180639 -0.000000 -0.000000
LeftUpLeg -41.051511 11.392015 -3.408073
LeftLeg 3.592415 -0.000000 -0.000000
LeftFoot -7.114632 1.485092 -3.404252
LeftToeBase 7.432399 -0.000000 -0.000000
Spine -41.174187 -7.070290 1.651521
RightShoulder -19.404697 16.122124 -47.721372
RightArm 1.384740 -12.424067 40.771690
RightForeArm 8.181824 -0.000000 -6.406077
RightHand 9.561032 -0.000000 5.037335
RightHandThumb1 -24.326973 -0.000000 -32.862282
LeftShoulder -11.552582 2.219063 41.230149
LeftArm 22.706926 -15.884652 -35.465951
LeftForeArm 10.526591 -0.000000 -2.600936
LeftHand -19.387297 -0.000000 -6.324880
LeftHandThumb1 -26.253704 0.000000 33.147579
Head 14.533239 -4.319165 8.181034
173
root -2.638771 32.759958 -5.204194 40.377461 9.026969 3.086451
RightUpLeg -33.027374 -13.064884 7.701206
RightLeg -6.065181 -0.000000 0.000000
RightFoot -7.871001 0.629034 21.202373
RightToeBase 20.236173 -0.000000 -0.000000
LeftUpLeg -41.244452 12.068964 -3.154151
LeftLeg 3.706784 -0.000000 -0.000000
LeftFoot -6.933899 1.466142 -3.784664
LeftToeBase 7.472269 -0.000000 -0.000000
Spine -41.161498 -7.107187 1.626646
RightShoulder -19.410752 16.080407 -47.634671
RightArm 1.313406 -12.298204 40.932981
RightForeArm 8.226526 -0.000000 -6.335226
RightHand 9.472795 -0.000000 5.063636
RightHandThumb1 -24.326973 -0.000000 -32.862282
LeftShoulder -11.566698 2.251766 41.232200
LeftArm 22.781491 -15.898844 -35.501790
LeftForeArm 10.622242 -0.000000 -2.497855
LeftHand -19.388221 -0.000000 -6.163361
LeftHandThumb1 -26.253704 0.000000 33.147579
Head 14.945075 -4.649172 8.396582
174
root -2.597651 32.754090 -5.214694 40.382863 9.071429 2.943087
RightUpLeg -33.020510 -13.009077 7.756301
RightLeg -6.115100 -0.000000 0.000000
RightFoot -7.789012 0.527105 21.139395
RightToeBase 20.058541 -0.000000 -0.000000
LeftUpLeg -41.459315 12.741800 -2.868967
LeftLeg 3.849211 -0.000000 -0.000000
LeftFoot -6.701637 1.390573 -4.183546
LeftToeBase 7.691467 -0.000000 -0.000000
Spine -41.160879 -7.094737 1.634664
RightShoulder -19.432441 15.959579 -47.573196
RightArm 1.270955 -12.105096 41.105642
RightForeArm 8.184559 -0.000000 -6.302003
RightHand 9.573269 -0.000000 4.973910
RightHandThumb1 -24.326973 -0.000000 -32.862282
LeftShoulder -11.520617 2.247272 41.215978
LeftArm 22.788654 -15.764191 -35.486313
LeftForeArm 10.585330 -0.000000 -2.415134
LeftHand -19.337904 0.000000 -5.994042
LeftHandThumb1 -26.253704 0.000000 33.147579
Head 15.379424 -4.971845 8.549666
175
root -2.549840 32.747052 -5.222049 40.369959 9.032061 2.842802
RightUpLeg -33.025255 -13.006136 7.769267
RightLeg -6.122036 -0.000000 0.000000
RightFoot -7.829145 0.613356 21.308222
RightToeBase 20.302371 -0.000000 -0.000000
LeftUpLeg -41.602850 13.439507 -2.684953
LeftLeg 3.963032 -0.000000 -0.000000
LeftFoot -6.363934 1.281704 -4.801013
LeftToeBase 7.253887 -0.000000 -0.000000
Spine -41.148734 -7.066605 1.574503
RightShoulder -19.454328 15.876149 -47.511675
RightArm 1.269956 -12.074322 41.262637
RightForeArm 8.201972 -0.000000 -6.338661
RightHand 9.634410 -0.000000 5.111759
RightHandThumb1 -24.326973 -0.000000 -32.862282
LeftShoulder -11.506678 2.284172 41.196934
LeftArm 22.845251 -15.769330 -35.546663
LeftForeArm 10.673846 -0.000000 -2.340124
LeftHand -19.412820 -0.000000 -5.821359
LeftHandThumb1 -26.253704 0.000000 33.147579
Head 15.842152 -5.318720 8.704021
